<svg viewBox="96 96 288 288" xmlns="http://www.w3.org/2000/svg">
<line x1="96" y1="96" x2="96" y2="160" stroke="black" />
<line x1="96" y1="96" x2="160" y2="160" stroke="black" />
<line x1="96" y1="96" x2="160" y2="96" stroke="black" />
<line x1="96" y1="160" x2="96" y2="224" stroke="black" />
<line x1="96" y1="160" x2="160" y2="224" stroke="black" />
<line x1="96" y1="160" x2="160" y2="160" stroke="black" />
<line x1="96" y1="160" x2="160" y2="96" stroke="black" />
<line x1="96" y1="224" x2="96" y2="288" stroke="black" />
<line x1="96" y1="224" x2="160" y2="288" stroke="black" />
<line x1="96" y1="224" x2="160" y2="224" stroke="black" />
<line x1="96" y1="224" x2="160" y2="160" stroke="black" />
<line x1="96" y1="288" x2="160" y2="288" stroke="black" />
<line x1="96" y1="288" x2="160" y2="224" stroke="black" />
<line x1="160" y1="96" x2="160" y2="160" stroke="black" />
<line x1="160" y1="96" x2="224" y2="160" stroke="black" />
<line x1="160" y1="96" x2="224" y2="96" stroke="black" />
<line x1="160" y1="160" x2="160" y2="224" stroke="black" />
<line x1="160" y1="160" x2="224" y2="224" stroke="black" />
<line x1="160" y1="160" x2="224" y2="160" stroke="black" />
<line x1="160" y1="160" x2="224" y2="96" stroke="black" />
<line x1="160" y1="224" x2="160" y2="288" stroke="black" />
<line x1="160" y1="224" x2="224" y2="288" stroke="black" />
<line x1="160" y1="224" x2="224" y2="224" stroke="black" />
<line x1="160" y1="224" x2="224" y2="160" stroke="black" />
<line x1="160" y1="288" x2="224" y2="288" stroke="black" />
<line x1="160" y1="288" x2="224" y2="224" stroke="black" />
<line x1="224" y1="96" x2="224" y2="160" stroke="black" />
<line x1="224" y1="96" x2="288" y2="160" stroke="black" />
<line x1="224" y1="96" x2="288" y2="96" stroke="black" />
<line x1="224" y1="160" x2="224" y2="224" stroke="black" />
<line x1="224" y1="160" x2="288" y2="224" stroke="black" />
<line x1="224" y1="160" x2="288" y2="160" stroke="black" />
<line x1="224" y1="160" x2="288" y2="96" stroke="black" />
<line x1="224" y1="224" x2="224" y2="288" stroke="black" />
<line x1="224" y1="224" x2="288" y2="288" stroke="black" />
<line x1="224" y1="224" x2="288" y2="224" stroke="black" />
<line x1="224" y1="224" x2="288" y2="160" stroke="black" />
<line x1="224" y1="288" x2="288" y2="288" stroke="black" />
<line x1="224" y1="288" x2="288" y2="224" stroke="black" />
<line x1="288" y1="96" x2="288" y2="160" stroke="black" />
<line x1="288" y1="160" x2="288" y2="224" stroke="black" />
<line x1="288" y1="224" x2="288" y2="288" stroke="black" />
</svg>
