<svg viewBox="64 32 320 544" xmlns="http://www.w3.org/2000/svg">
<line x1="64" y1="32" x2="128" y2="224" stroke="black" />
<line x1="64" y1="32" x2="64" y2="96" stroke="black" />
<line x1="64" y1="32" x2="128" y2="32" stroke="black" />
<line x1="128" y1="224" x2="192" y2="416" stroke="black" />
<line x1="128" y1="224" x2="128" y2="288" stroke="black" />
<line x1="128" y1="224" x2="192" y2="224" stroke="black" />
<line x1="192" y1="416" x2="192" y2="480" stroke="black" />
<line x1="192" y1="416" x2="256" y2="416" stroke="black" />
<line x1="64" y1="96" x2="128" y2="288" stroke="black" />
<line x1="64" y1="96" x2="64" y2="160" stroke="black" />
<line x1="64" y1="96" x2="128" y2="96" stroke="black" />
<line x1="128" y1="288" x2="192" y2="480" stroke="black" />
<line x1="128" y1="288" x2="128" y2="352" stroke="black" />
<line x1="128" y1="288" x2="192" y2="288" stroke="black" />
<line x1="192" y1="480" x2="192" y2="544" stroke="black" />
<line x1="192" y1="480" x2="256" y2="480" stroke="black" />
<line x1="64" y1="160" x2="128" y2="352" stroke="black" />
<line x1="64" y1="160" x2="128" y2="160" stroke="black" />
<line x1="128" y1="352" x2="192" y2="544" stroke="black" />
<line x1="128" y1="352" x2="192" y2="352" stroke="black" />
<line x1="192" y1="544" x2="256" y2="544" stroke="black" />
<line x1="128" y1="32" x2="192" y2="224" stroke="black" />
<line x1="128" y1="32" x2="128" y2="96" stroke="black" />
<line x1="128" y1="32" x2="192" y2="32" stroke="black" />
<line x1="192" y1="224" x2="256" y2="416" stroke="black" />
<line x1="192" y1="224" x2="192" y2="288" stroke="black" />
<line x1="192" y1="224" x2="256" y2="224" stroke="black" />
<line x1="256" y1="416" x2="256" y2="480" stroke="black" />
<line x1="256" y1="416" x2="320" y2="416" stroke="black" />
<line x1="128" y1="96" x2="192" y2="288" stroke="black" />
<line x1="128" y1="96" x2="128" y2="160" stroke="black" />
<line x1="128" y1="96" x2="192" y2="96" stroke="black" />
<line x1="192" y1="288" x2="256" y2="480" stroke="black" />
<line x1="192" y1="288" x2="192" y2="352" stroke="black" />
<line x1="192" y1="288" x2="256" y2="288" stroke="black" />
<line x1="256" y1="480" x2="256" y2="544" stroke="black" />
<line x1="256" y1="480" x2="320" y2="480" stroke="black" />
<line x1="128" y1="160" x2="192" y2="352" stroke="black" />
<line x1="128" y1="160" x2="192" y2="160" stroke="black" />
<line x1="192" y1="352" x2="256" y2="544" stroke="black" />
<line x1="192" y1="352" x2="256" y2="352" stroke="black" />
<line x1="256" y1="544" x2="320" y2="544" stroke="black" />
<line x1="192" y1="32" x2="256" y2="224" stroke="black" />
<line x1="192" y1="32" x2="192" y2="96" stroke="black" />
<line x1="256" y1="224" x2="320" y2="416" stroke="black" />
<line x1="256" y1="224" x2="256" y2="288" stroke="black" />
<line x1="320" y1="416" x2="320" y2="480" stroke="black" />
<line x1="192" y1="96" x2="256" y2="288" stroke="black" />
<line x1="192" y1="96" x2="192" y2="160" stroke="black" />
<line x1="256" y1="288" x2="320" y2="480" stroke="black" />
<line x1="256" y1="288" x2="256" y2="352" stroke="black" />
<line x1="320" y1="480" x2="320" y2="544" stroke="black" />
<line x1="192" y1="160" x2="256" y2="352" stroke="black" />
<line x1="256" y1="352" x2="320" y2="544" stroke="black" />
</svg>
