<svg viewBox="64 82 320 302" xmlns="http://www.w3.org/2000/svg">
<line x1="128" y1="192" x2="160" y2="247" stroke="black" />
<line x1="128" y1="192" x2="192" y2="192" stroke="black" />
<line x1="128" y1="192" x2="96" y2="247" stroke="black" />
<line x1="128" y1="302" x2="192" y2="302" stroke="black" />
<line x1="128" y1="82" x2="160" y2="137" stroke="black" />
<line x1="128" y1="82" x2="192" y2="82" stroke="black" />
<line x1="128" y1="82" x2="96" y2="137" stroke="black" />
<line x1="160" y1="137" x2="128" y2="192" stroke="black" />
<line x1="160" y1="137" x2="192" y2="192" stroke="black" />
<line x1="160" y1="137" x2="224" y2="137" stroke="black" />
<line x1="160" y1="247" x2="128" y2="302" stroke="black" />
<line x1="160" y1="247" x2="192" y2="302" stroke="black" />
<line x1="160" y1="247" x2="224" y2="247" stroke="black" />
<line x1="192" y1="192" x2="160" y2="247" stroke="black" />
<line x1="192" y1="192" x2="224" y2="247" stroke="black" />
<line x1="192" y1="192" x2="256" y2="192" stroke="black" />
<line x1="192" y1="302" x2="256" y2="302" stroke="black" />
<line x1="192" y1="82" x2="160" y2="137" stroke="black" />
<line x1="192" y1="82" x2="224" y2="137" stroke="black" />
<line x1="192" y1="82" x2="256" y2="82" stroke="black" />
<line x1="224" y1="137" x2="192" y2="192" stroke="black" />
<line x1="224" y1="137" x2="256" y2="192" stroke="black" />
<line x1="224" y1="137" x2="288" y2="137" stroke="black" />
<line x1="224" y1="247" x2="192" y2="302" stroke="black" />
<line x1="224" y1="247" x2="256" y2="302" stroke="black" />
<line x1="224" y1="247" x2="288" y2="247" stroke="black" />
<line x1="256" y1="192" x2="224" y2="247" stroke="black" />
<line x1="256" y1="192" x2="288" y2="247" stroke="black" />
<line x1="256" y1="192" x2="320" y2="192" stroke="black" />
<line x1="256" y1="82" x2="224" y2="137" stroke="black" />
<line x1="256" y1="82" x2="288" y2="137" stroke="black" />
<line x1="288" y1="137" x2="256" y2="192" stroke="black" />
<line x1="288" y1="137" x2="320" y2="192" stroke="black" />
<line x1="288" y1="247" x2="256" y2="302" stroke="black" />
<line x1="320" y1="192" x2="288" y2="247" stroke="black" />
<line x1="64" y1="192" x2="128" y2="192" stroke="black" />
<line x1="64" y1="192" x2="96" y2="247" stroke="black" />
<line x1="96" y1="137" x2="128" y2="192" stroke="black" />
<line x1="96" y1="137" x2="160" y2="137" stroke="black" />
<line x1="96" y1="137" x2="64" y2="192" stroke="black" />
<line x1="96" y1="247" x2="128" y2="302" stroke="black" />
<line x1="96" y1="247" x2="160" y2="247" stroke="black" />
</svg>
